# xmcd CD database file
#
# Track frame offsets:
#	150
#	14196
#	36147
#	61131
#	91899
#	114593
#	134836
#	153866
#	173284
#	200972
#	215907
#	233276
#	252373
#
# Disc length: 3599 seconds
#
# Revision: 0
# Processed by: cddbd v1.5.2PL0 Copyright (c) Steve Scherf et al.
# Submitted via: CDex 1.50beta10
#
DISCID=b40e0d0d
DTITLE=Chris Rea - Stony Road CD1
DYEAR=2002
DGENRE=Blues
TTITLE0=Changing Times
TTITLE1=Easy Rider
TTITLE2=Stony Road
TTITLE3=Dancing The Blues Away
TTITLE4=Burning Feet
TTITLE5=Mississippi
TTITLE6=Slow Dance
TTITLE7=When The Good Lord Talked To Jesus
TTITLE8=Heading For The City
TTITLE9=So Lonely
TTITLE10=Someday My Peace Will Come
TTITLE11=The Hustler
TTITLE12=Give That Girl A Diamond
EXTD=YEAR: 2002
EXTT0=
EXTT1=
EXTT2=
EXTT3=
EXTT4=
EXTT5=
EXTT6=
EXTT7=
EXTT8=
EXTT9=
EXTT10=
EXTT11=
EXTT12=
PLAYORDER=
